<?xml version="1.0" encoding="utf-8"?><svg viewBox="0 0 101 8" xmlns="http://www.w3.org/2000/svg" xmlns:xlink="http://www.w3.org/1999/xlink"><style>:root>svg{display:none}:root>svg:target{display:block}</style><svg fill="none" viewBox="0 0 101 8" id="Arrow1" xmlns="http://www.w3.org/2000/svg"><path d="M100.354 4.354a.5.5 0 000-.708L97.172.464a.5.5 0 10-.707.708L99.293 4l-2.829 2.828a.5.5 0 10.708.708l3.182-3.182zM0 4.5h100v-1H0v1z" fill="#fff"/></svg><svg fill="none" viewBox="0 0 101 8" id="Arrow2" xmlns="http://www.w3.org/2000/svg"><path d="M.646 4.354a.5.5 0 010-.708L3.828.464a.5.5 0 01.708.708L1.707 4l2.829 2.828a.5.5 0 11-.708.708L.646 4.354zM101 4.5H1v-1h100v1z" fill="#fff"/></svg></svg>