<svg viewBox="0 0 492.95 492.95" xmlns="http://www.w3.org/2000/svg" xmlns:xlink="http://www.w3.org/1999/xlink"><style>:root&gt;svg{display:none}:root&gt;svg:target{display:block}</style><svg fill="none" viewBox="0 0 101 8" id="Arrow1" xmlns="http://www.w3.org/2000/svg"><path d="M100.354 4.354a.5.5 0 000-.708L97.172.464a.5.5 0 10-.707.708L99.293 4l-2.829 2.828a.5.5 0 10.708.708l3.182-3.182zM0 4.5h100v-1H0v1z" fill="#fff"/></svg><svg fill="none" viewBox="0 0 101 8" id="Arrow2" xmlns="http://www.w3.org/2000/svg"><path d="M.646 4.354a.5.5 0 010-.708L3.828.464a.5.5 0 01.708.708L1.707 4l2.829 2.828a.5.5 0 11-.708.708L.646 4.354zM101 4.5H1v-1h100v1z" fill="#fff"/></svg><svg viewBox="0 0 492.948 492.948" id="slider-arrow" xmlns="http://www.w3.org/2000/svg"><path d="M0 254.485L92.154 345l89.762-92.139v238.614h129.13v-238.63l89.762 92.154 92.139-90.515L246.482 1.474 0 254.485zm401.291 46.859L280.238 177.058v283.608h-67.514V177.073L91.673 301.344l-48.198-47.341L246.482 45.611l202.992 208.393-48.183 47.34z"/></svg><svg viewBox="0 0 240 240" id="telegram" xmlns="http://www.w3.org/2000/svg"><linearGradient id="da" gradientUnits="userSpaceOnUse" x1="-683.305" y1="534.845" x2="-693.305" y2="511.512" gradientTransform="matrix(6 0 0 -6 4255 3247)"><stop offset="0" stop-color="#37aee2"/><stop offset="1" stop-color="#1e96c8"/></linearGradient><path d="M240 120c0 66.3-53.7 120-120 120S0 186.3 0 120 53.7 0 120 0s120 53.7 120 120z" fill="url(#da)"/><path d="M98 175c-3.9 0-3.2-1.5-4.6-5.2L82 132.2 152.8 88l8.3 2.2-6.9 18.8L98 175z" fill="#c8daea"/><path d="M98 175c3 0 4.3-1.4 6-3 2.6-2.5 36-35 36-35l-20.5-5-19 12-2.5 30v1z" fill="#a9c9dd"/><linearGradient id="db" gradientUnits="userSpaceOnUse" x1="128.991" y1="118.245" x2="153.991" y2="78.245" gradientTransform="matrix(1 0 0 -1 0 242)"><stop offset="0" stop-color="#eff7fc"/><stop offset="1" stop-color="#fff"/></linearGradient><path d="M100 144.4l48.4 35.7c5.5 3 9.5 1.5 10.9-5.1L179 82.2c2-8.1-3.1-11.7-8.4-9.3L55 117.5c-7.9 3.2-7.8 7.6-1.4 9.5l29.7 9.3L152 93c3.2-2 6.2-.9 3.8 1.3L100 144.4z" fill="url(#db)"/></svg></svg>