<svg viewBox="0 0 492.95 492.95" xmlns="http://www.w3.org/2000/svg" xmlns:xlink="http://www.w3.org/1999/xlink"><style>:root&gt;svg{display:none}:root&gt;svg:target{display:block}</style><svg fill="none" viewBox="0 0 101 8" id="Arrow1" xmlns="http://www.w3.org/2000/svg"><path d="M100.354 4.354a.5.5 0 000-.708L97.172.464a.5.5 0 10-.707.708L99.293 4l-2.829 2.828a.5.5 0 10.708.708l3.182-3.182zM0 4.5h100v-1H0v1z" fill="#fff"/></svg><svg fill="none" viewBox="0 0 101 8" id="Arrow2" xmlns="http://www.w3.org/2000/svg"><path d="M.646 4.354a.5.5 0 010-.708L3.828.464a.5.5 0 01.708.708L1.707 4l2.829 2.828a.5.5 0 11-.708.708L.646 4.354zM101 4.5H1v-1h100v1z" fill="#fff"/></svg><svg viewBox="0 0 492.948 492.948" id="slider-arrow" xmlns="http://www.w3.org/2000/svg"><path d="M0 254.485L92.154 345l89.762-92.139v238.614h129.13v-238.63l89.762 92.154 92.139-90.515L246.482 1.474 0 254.485zm401.291 46.859L280.238 177.058v283.608h-67.514V177.073L91.673 301.344l-48.198-47.341L246.482 45.611l202.992 208.393-48.183 47.34z"/></svg></svg>